# xmcd
#
# Track frame offsets: 
#        150
#        10779
#        20981
#        29229
#        40900
#        54051
#        70995
#        82470
#        90430
#        99220
#        118281
#        130529
#        148127
#        161675
#        178472
#        194488
#        207832
#        225646
#        236471
#        256243
#        267382
#        282167
#        295368
#        309206
#        319276
#
# Disc length: 4403 seconds
#
# Revision: 0
# Processed by: cddbd v1.5.2PL0 Copyright (c) Steve Scherf et al.
# Submitted via: ExactAudioCopy v1.0b3
#
DISCID=75113119
DTITLE=Various Artist - The Crooked Road
DYEAR=2011
DGENRE=Bluegrass
TTITLE0=The New Ballard's Branch Bogtrotters - Big-Eyed Rabbit
TTITLE1=Olen and Frances Gardner - Pinnacle Mountain
TTITLE2=The Good Shepherd Quartet - All God's Children Gonna Take A Ri
TTITLE2=de
TTITLE3=Mac and Jenny Traynham - Sailor On The Deep Blue Sea
TTITLE4=Erynn Marshall - Calico
TTITLE5=Elizabeth LaPrelle - Three Little Babes
TTITLE6=Shawn Lane - Love Me Darling Just Tonight
TTITLE7=Wayne Henderson - Buckdancer's Choice
TTITLE8=The Black Twig Pickers - Saro O Saro
TTITLE9=Acoustic Heritage - Little Satchel
TTITLE10=Virginia Cross Ties - When I Am Welcomed Inside
TTITLE11=Blue Highway - Between The Rows
TTITLE12=Buddy Pendleton and Friends - Billy In The Lowground
TTITLE13=Wolfe Bros. String Band - Democratic Donkey
TTITLE14=Dale Jett and Hello Stranger - The Cyclone Of Rye Cove
TTITLE15=Big Country Bluegrass - You Don't Have Far To Go
TTITLE16=Susan Brown and Friends - Coal Town
TTITLE17=Jerry Correll - Rye Straw
TTITLE18=Sandy Shortridge - Grandma's Choice
TTITLE19=The Cana Ramblers - Will You Be Loving Another Man
TTITLE20=Scott Freeman - Dori's Waltz
TTITLE21=Jim Lloyd and the Skyliners - You Can't Grow An Onion Upside 
TTITLE21=Down
TTITLE22=Junior Sisk and Ramblers Choice - The Wolf Is At The Door
TTITLE23=Sammy Shelor - Lonesome Scene Of Winter
TTITLE24=The Wright Kids - Fishers Hornpipe
EXTD=
EXTT0=
EXTT1=
EXTT2=
EXTT3=
EXTT4=
EXTT5=
EXTT6=
EXTT7=
EXTT8=
EXTT9=
EXTT10=
EXTT11=
EXTT12=
EXTT13=
EXTT14=
EXTT15=
EXTT16=
EXTT17=
EXTT18=
EXTT19=
EXTT20=
EXTT21=
EXTT22=
EXTT23=
EXTT24=
PLAYORDER=
